<svg width="174" height="32" viewBox="0 0 174 32" fill="none" xmlns="http://www.w3.org/2000/svg">
<path d="M48.386 15.931C48.518 15.931 48.635 15.982 48.737 16.084L49.691 17.119C49.163 17.773 48.512 18.274 47.738 18.622C46.97 18.97 46.046 19.144 44.966 19.144C44 19.144 43.13 18.979 42.356 18.649C41.588 18.319 40.931 17.86 40.385 17.272C39.839 16.684 39.419 15.982 39.125 15.166C38.837 14.35 38.693 13.459 38.693 12.493C38.693 11.515 38.849 10.621 39.161 9.811C39.473 8.995 39.911 8.293 40.475 7.705C41.045 7.117 41.723 6.661 42.509 6.337C43.295 6.007 44.165 5.842 45.119 5.842C46.067 5.842 46.907 5.998 47.639 6.31C48.377 6.622 49.004 7.03 49.52 7.534L48.71 8.659C48.662 8.731 48.599 8.794 48.521 8.848C48.449 8.902 48.347 8.929 48.215 8.929C48.125 8.929 48.032 8.905 47.936 8.857C47.84 8.803 47.735 8.74 47.621 8.668C47.507 8.59 47.375 8.506 47.225 8.416C47.075 8.326 46.901 8.245 46.703 8.173C46.505 8.095 46.274 8.032 46.01 7.984C45.752 7.93 45.452 7.903 45.11 7.903C44.528 7.903 43.994 8.008 43.508 8.218C43.028 8.422 42.614 8.722 42.266 9.118C41.918 9.508 41.648 9.988 41.456 10.558C41.264 11.122 41.168 11.767 41.168 12.493C41.168 13.225 41.27 13.876 41.474 14.446C41.684 15.016 41.966 15.496 42.32 15.886C42.674 16.276 43.091 16.576 43.571 16.786C44.051 16.99 44.567 17.092 45.119 17.092C45.449 17.092 45.746 17.074 46.01 17.038C46.28 17.002 46.526 16.945 46.748 16.867C46.976 16.789 47.189 16.69 47.387 16.57C47.591 16.444 47.792 16.291 47.99 16.111C48.05 16.057 48.113 16.015 48.179 15.985C48.245 15.949 48.314 15.931 48.386 15.931ZM58.9724 17.002V19H51.3494V5.986H53.7704V17.002H58.9724ZM72.6549 12.493C72.6549 13.447 72.4959 14.332 72.1779 15.148C71.8659 15.958 71.4219 16.66 70.8459 17.254C70.2699 17.848 69.5769 18.313 68.7669 18.649C67.9569 18.979 67.0569 19.144 66.0669 19.144C65.0829 19.144 64.1859 18.979 63.3759 18.649C62.5659 18.313 61.8699 17.848 61.2879 17.254C60.7119 16.66 60.2649 15.958 59.9469 15.148C59.6289 14.332 59.4699 13.447 59.4699 12.493C59.4699 11.539 59.6289 10.657 59.9469 9.847C60.2649 9.031 60.7119 8.326 61.2879 7.732C61.8699 7.138 62.5659 6.676 63.3759 6.346C64.1859 6.01 65.0829 5.842 66.0669 5.842C66.7269 5.842 67.3479 5.92 67.9299 6.076C68.5119 6.226 69.0459 6.442 69.5319 6.724C70.0179 7 70.4529 7.339 70.8369 7.741C71.2269 8.137 71.5569 8.581 71.8269 9.073C72.0969 9.565 72.3009 10.099 72.4389 10.675C72.5829 11.251 72.6549 11.857 72.6549 12.493ZM70.1799 12.493C70.1799 11.779 70.0839 11.14 69.8919 10.576C69.6999 10.006 69.4269 9.523 69.0729 9.127C68.7189 8.731 68.2869 8.428 67.7769 8.218C67.2729 8.008 66.7029 7.903 66.0669 7.903C65.4309 7.903 64.8579 8.008 64.3479 8.218C63.8439 8.428 63.4119 8.731 63.0519 9.127C62.6979 9.523 62.4249 10.006 62.2329 10.576C62.0409 11.14 61.9449 11.779 61.9449 12.493C61.9449 13.207 62.0409 13.849 62.2329 14.419C62.4249 14.983 62.6979 15.463 63.0519 15.859C63.4119 16.249 63.8439 16.549 64.3479 16.759C64.8579 16.969 65.4309 17.074 66.0669 17.074C66.7029 17.074 67.2729 16.969 67.7769 16.759C68.2869 16.549 68.7189 16.249 69.0729 15.859C69.4269 15.463 69.6999 14.983 69.8919 14.419C70.0839 13.849 70.1799 13.207 70.1799 12.493ZM80.019 17.047C80.487 17.047 80.904 16.969 81.27 16.813C81.642 16.657 81.954 16.438 82.206 16.156C82.458 15.874 82.65 15.532 82.782 15.13C82.92 14.728 82.989 14.278 82.989 13.78V5.986H85.41V13.78C85.41 14.554 85.284 15.271 85.032 15.931C84.786 16.585 84.429 17.152 83.961 17.632C83.499 18.106 82.935 18.478 82.269 18.748C81.603 19.012 80.853 19.144 80.019 19.144C79.179 19.144 78.426 19.012 77.76 18.748C77.094 18.478 76.527 18.106 76.059 17.632C75.597 17.152 75.24 16.585 74.988 15.931C74.742 15.271 74.619 14.554 74.619 13.78V5.986H77.04V13.771C77.04 14.269 77.106 14.719 77.238 15.121C77.376 15.523 77.571 15.868 77.823 16.156C78.081 16.438 78.393 16.657 78.759 16.813C79.131 16.969 79.551 17.047 80.019 17.047ZM99.6964 12.493C99.6964 13.447 99.5374 14.323 99.2194 15.121C98.9014 15.919 98.4544 16.606 97.8784 17.182C97.3024 17.758 96.6094 18.205 95.7994 18.523C94.9894 18.841 94.0894 19 93.0994 19H88.1404V5.986H93.0994C94.0894 5.986 94.9894 6.148 95.7994 6.472C96.6094 6.79 97.3024 7.237 97.8784 7.813C98.4544 8.383 98.9014 9.067 99.2194 9.865C99.5374 10.663 99.6964 11.539 99.6964 12.493ZM97.2124 12.493C97.2124 11.779 97.1164 11.14 96.9244 10.576C96.7384 10.006 96.4654 9.526 96.1054 9.136C95.7514 8.74 95.3194 8.437 94.8094 8.227C94.3054 8.017 93.7354 7.912 93.0994 7.912H90.5704V17.074H93.0994C93.7354 17.074 94.3054 16.969 94.8094 16.759C95.3194 16.549 95.7514 16.249 96.1054 15.859C96.4654 15.463 96.7384 14.983 96.9244 14.419C97.1164 13.849 97.2124 13.207 97.2124 12.493ZM106.703 17.11C107.153 17.11 107.531 17.056 107.837 16.948C108.143 16.84 108.386 16.696 108.566 16.516C108.752 16.336 108.884 16.126 108.962 15.886C109.046 15.646 109.088 15.391 109.088 15.121C109.088 14.839 109.043 14.587 108.953 14.365C108.863 14.137 108.722 13.945 108.53 13.789C108.338 13.627 108.089 13.504 107.783 13.42C107.483 13.336 107.12 13.294 106.694 13.294H104.255V17.11H106.703ZM104.255 7.858V11.62H106.181C107.009 11.62 107.633 11.47 108.053 11.17C108.479 10.87 108.692 10.393 108.692 9.739C108.692 9.061 108.5 8.578 108.116 8.29C107.732 8.002 107.132 7.858 106.316 7.858H104.255ZM106.316 5.986C107.168 5.986 107.897 6.067 108.503 6.229C109.109 6.391 109.604 6.622 109.988 6.922C110.378 7.222 110.663 7.585 110.843 8.011C111.023 8.437 111.113 8.917 111.113 9.451C111.113 9.757 111.068 10.051 110.978 10.333C110.888 10.609 110.747 10.87 110.555 11.116C110.369 11.356 110.129 11.575 109.835 11.773C109.547 11.971 109.202 12.139 108.8 12.277C110.588 12.679 111.482 13.645 111.482 15.175C111.482 15.727 111.377 16.237 111.167 16.705C110.957 17.173 110.651 17.578 110.249 17.92C109.847 18.256 109.352 18.52 108.764 18.712C108.176 18.904 107.504 19 106.748 19H101.834V5.986H106.316ZM118.919 17.047C119.387 17.047 119.804 16.969 120.17 16.813C120.542 16.657 120.854 16.438 121.106 16.156C121.358 15.874 121.55 15.532 121.682 15.13C121.82 14.728 121.889 14.278 121.889 13.78V5.986H124.31V13.78C124.31 14.554 124.184 15.271 123.932 15.931C123.686 16.585 123.329 17.152 122.861 17.632C122.399 18.106 121.835 18.478 121.169 18.748C120.503 19.012 119.753 19.144 118.919 19.144C118.079 19.144 117.326 19.012 116.66 18.748C115.994 18.478 115.427 18.106 114.959 17.632C114.497 17.152 114.14 16.585 113.888 15.931C113.642 15.271 113.519 14.554 113.519 13.78V5.986H115.94V13.771C115.94 14.269 116.006 14.719 116.138 15.121C116.276 15.523 116.471 15.868 116.723 16.156C116.981 16.438 117.293 16.657 117.659 16.813C118.031 16.969 118.451 17.047 118.919 17.047ZM138.597 12.493C138.597 13.447 138.438 14.323 138.12 15.121C137.802 15.919 137.355 16.606 136.779 17.182C136.203 17.758 135.51 18.205 134.7 18.523C133.89 18.841 132.99 19 132 19H127.041V5.986H132C132.99 5.986 133.89 6.148 134.7 6.472C135.51 6.79 136.203 7.237 136.779 7.813C137.355 8.383 137.802 9.067 138.12 9.865C138.438 10.663 138.597 11.539 138.597 12.493ZM136.113 12.493C136.113 11.779 136.017 11.14 135.825 10.576C135.639 10.006 135.366 9.526 135.006 9.136C134.652 8.74 134.22 8.437 133.71 8.227C133.206 8.017 132.636 7.912 132 7.912H129.471V17.074H132C132.636 17.074 133.206 16.969 133.71 16.759C134.22 16.549 134.652 16.249 135.006 15.859C135.366 15.463 135.639 14.983 135.825 14.419C136.017 13.849 136.113 13.207 136.113 12.493ZM151.462 12.475V17.74C150.802 18.226 150.097 18.583 149.347 18.811C148.603 19.033 147.805 19.144 146.953 19.144C145.891 19.144 144.928 18.979 144.064 18.649C143.206 18.319 142.471 17.86 141.859 17.272C141.253 16.684 140.785 15.982 140.455 15.166C140.125 14.35 139.96 13.459 139.96 12.493C139.96 11.515 140.119 10.618 140.437 9.802C140.755 8.986 141.205 8.284 141.787 7.696C142.375 7.108 143.086 6.652 143.92 6.328C144.754 6.004 145.69 5.842 146.728 5.842C147.256 5.842 147.748 5.884 148.204 5.968C148.666 6.052 149.092 6.169 149.482 6.319C149.878 6.463 150.238 6.64 150.562 6.85C150.886 7.06 151.183 7.291 151.453 7.543L150.76 8.641C150.652 8.815 150.511 8.923 150.337 8.965C150.163 9.001 149.974 8.956 149.77 8.83C149.572 8.716 149.374 8.602 149.176 8.488C148.978 8.374 148.756 8.275 148.51 8.191C148.27 8.107 147.997 8.038 147.691 7.984C147.391 7.93 147.043 7.903 146.647 7.903C146.005 7.903 145.423 8.011 144.901 8.227C144.385 8.443 143.944 8.752 143.578 9.154C143.212 9.556 142.93 10.039 142.732 10.603C142.534 11.167 142.435 11.797 142.435 12.493C142.435 13.237 142.54 13.903 142.75 14.491C142.966 15.073 143.266 15.568 143.65 15.976C144.04 16.378 144.508 16.687 145.054 16.903C145.6 17.113 146.209 17.218 146.881 17.218C147.361 17.218 147.79 17.167 148.168 17.065C148.546 16.963 148.915 16.825 149.275 16.651V14.293H147.637C147.481 14.293 147.358 14.251 147.268 14.167C147.184 14.077 147.142 13.969 147.142 13.843V12.475H151.462ZM156.225 7.912V11.521H160.779V13.384H156.225V17.065H162.003V19H153.795V5.986H162.003V7.912H156.225ZM173.238 7.975H169.314V19H166.893V7.975H162.969V5.986H173.238V7.975Z" fill="white"/>
<path d="M28.31 14.4C28.31 13.92 28.5 13.44 28.5 12.8C28.5 9.27999 25.08 6.39999 20.9 6.39999C17.86 6.39999 15.39 7.83999 14.06 9.91999C13.68 9.75999 12.92 9.59999 12.35 9.59999C9.69002 9.59999 7.60002 11.36 7.60002 13.6C7.60002 13.92 7.60002 14.24 7.79002 14.4C4.37002 14.88 1.90002 17.12 1.90002 20C1.90002 23.04 4.94002 25.6 8.55002 25.6H27.55C31.16 25.6 34.2 23.04 34.2 20C34.2 17.12 31.73 14.72 28.31 14.4Z" fill="white"/>
</svg>
